<mxfile host="app.diagrams.net" modified="2024-01-09T12:00:00.000Z" agent="Mozilla/5.0" version="21.6.6" type="device">
  <diagram name="CareerCanvas Architecture" id="architecture">
    <mxGraphModel dx="1422" dy="762" grid="1" gridSize="10" guides="1" tooltips="1" connect="1" arrows="1" fold="1" page="1" pageScale="1" pageWidth="1100" pageHeight="850" background="#ffffff">
      <root>
        <mxCell id="0"/>
        <mxCell id="1" parent="0"/>
        
        <!-- AWS Cloud -->
        <mxCell id="cloud" value="AWS Cloud" style="points=[[0,0],[0.25,0],[0.5,0],[0.75,0],[1,0],[1,0.25],[1,0.5],[1,0.75],[1,1],[0.75,1],[0.5,1],[0.25,1],[0,1],[0,0.75],[0,0.5],[0,0.25]];outlineConnect=0;gradientColor=none;html=1;whiteSpace=wrap;fontSize=12;fontStyle=0;container=1;pointerEvents=0;collapsible=0;recursiveResize=0;shape=mxgraph.aws4.group;grIcon=mxgraph.aws4.group_aws_cloud;strokeColor=#232F3E;fillColor=none;verticalAlign=top;align=left;spacingLeft=30;fontColor=#232F3E;dashed=0;" vertex="1" parent="1">
          <mxGeometry x="40" y="40" width="1000" height="760" as="geometry"/>
        </mxCell>
        
        <!-- API Gateway -->
        <mxCell id="apigateway" value="API Gateway" style="sketch=0;points=[[0,0,0],[0.25,0,0],[0.5,0,0],[0.75,0,0],[1,0,0],[0,1,0],[0.25,1,0],[0.5,1,0],[0.75,1,0],[1,1,0],[0,0.25,0],[0,0.5,0],[0,0.75,0],[1,0.25,0],[1,0.5,0],[1,0.75,0]];outlineConnect=0;fontColor=#232F3E;gradientColor=#FF4F8B;gradientDirection=north;fillColor=#BC1356;strokeColor=#ffffff;dashed=0;verticalLabelPosition=bottom;verticalAlign=top;align=center;html=1;fontSize=12;fontStyle=0;aspect=fixed;shape=mxgraph.aws4.resourceIcon;resIcon=mxgraph.aws4.api_gateway;" vertex="1" parent="cloud">
          <mxGeometry x="460" y="40" width="78" height="78" as="geometry"/>
        </mxCell>
        
        <!-- Lambda Functions -->
        <!-- Auth Service -->
        <mxCell id="auth" value="Auth Service" style="fillColor=#dae8fc;strokeColor=#6c8ebf;rounded=1;" vertex="1" parent="cloud">
          <mxGeometry x="80" y="200" width="120" height="60" as="geometry"/>
        </mxCell>
        
        <!-- Course Management Service -->
        <mxCell id="course" value="Course Management Service" style="fillColor=#d5e8d4;strokeColor=#82b366;rounded=1;" vertex="1" parent="cloud">
          <mxGeometry x="240" y="200" width="120" height="60" as="geometry"/>
        </mxCell>
        
        <!-- Job Management Service -->
        <mxCell id="job" value="Job Management Service" style="fillColor=#ffe6cc;strokeColor=#d79b00;rounded=1;" vertex="1" parent="cloud">
          <mxGeometry x="400" y="200" width="120" height="60" as="geometry"/>
        </mxCell>
        
        <!-- Media Service -->
        <mxCell id="media" value="Media Service" style="fillColor=#fff2cc;strokeColor=#d6b656;rounded=1;" vertex="1" parent="cloud">
          <mxGeometry x="560" y="200" width="120" height="60" as="geometry"/>
        </mxCell>
        
        <!-- Personality Test Service -->
        <mxCell id="personality" value="Personality Test Service" style="fillColor=#e1d5e7;strokeColor=#9673a6;rounded=1;" vertex="1" parent="cloud">
          <mxGeometry x="720" y="200" width="120" height="60" as="geometry"/>
        </mxCell>
        
        <!-- User Management Service -->
        <mxCell id="user" value="User Management Service" style="fillColor=#f8cecc;strokeColor=#b85450;rounded=1;" vertex="1" parent="cloud">
          <mxGeometry x="880" y="200" width="120" height="60" as="geometry"/>
        </mxCell>
        
        <!-- DynamoDB Tables -->
        <mxCell id="dynamodb" value="DynamoDB" style="sketch=0;points=[[0,0,0],[0.25,0,0],[0.5,0,0],[0.75,0,0],[1,0,0],[0,1,0],[0.25,1,0],[0.5,1,0],[0.75,1,0],[1,1,0],[0,0.25,0],[0,0.5,0],[0,0.75,0],[1,0.25,0],[1,0.5,0],[1,0.75,0]];outlineConnect=0;fontColor=#232F3E;gradientColor=#4D72F3;gradientDirection=north;fillColor=#3334B9;strokeColor=#ffffff;dashed=0;verticalLabelPosition=bottom;verticalAlign=top;align=center;html=1;fontSize=12;fontStyle=0;aspect=fixed;shape=mxgraph.aws4.resourceIcon;resIcon=mxgraph.aws4.dynamodb;" vertex="1" parent="cloud">
          <mxGeometry x="460" y="400" width="78" height="78" as="geometry"/>
        </mxCell>
        
        <!-- S3 Bucket -->
        <mxCell id="s3" value="S3" style="sketch=0;points=[[0,0,0],[0.25,0,0],[0.5,0,0],[0.75,0,0],[1,0,0],[0,1,0],[0.25,1,0],[0.5,1,0],[0.75,1,0],[1,1,0],[0,0.25,0],[0,0.5,0],[0,0.75,0],[1,0.25,0],[1,0.5,0],[1,0.75,0]];outlineConnect=0;fontColor=#232F3E;gradientColor=#60A337;gradientDirection=north;fillColor=#277116;strokeColor=#ffffff;dashed=0;verticalLabelPosition=bottom;verticalAlign=top;align=center;html=1;fontSize=12;fontStyle=0;aspect=fixed;shape=mxgraph.aws4.resourceIcon;resIcon=mxgraph.aws4.s3;" vertex="1" parent="cloud">
          <mxGeometry x="580" y="400" width="78" height="78" as="geometry"/>
        </mxCell>
        
        <!-- Cognito -->
        <mxCell id="cognito" value="Cognito" style="sketch=0;points=[[0,0,0],[0.25,0,0],[0.5,0,0],[0.75,0,0],[1,0,0],[0,1,0],[0.25,1,0],[0.5,1,0],[0.75,1,0],[1,1,0],[0,0.25,0],[0,0.5,0],[0,0.75,0],[1,0.25,0],[1,0.5,0],[1,0.75,0]];outlineConnect=0;fontColor=#232F3E;gradientColor=#F54749;gradientDirection=north;fillColor=#C7131F;strokeColor=#ffffff;dashed=0;verticalLabelPosition=bottom;verticalAlign=top;align=center;html=1;fontSize=12;fontStyle=0;aspect=fixed;shape=mxgraph.aws4.resourceIcon;resIcon=mxgraph.aws4.cognito;" vertex="1" parent="cloud">
          <mxGeometry x="340" y="400" width="78" height="78" as="geometry"/>
        </mxCell>
        
        <!-- Connections -->
        <!-- API Gateway to Services -->
        <mxCell id="auth-api" value="" style="endArrow=classic;startArrow=classic;html=1;" edge="1" parent="cloud" source="auth" target="apigateway">
          <mxGeometry width="50" height="50" relative="1" as="geometry"/>
        </mxCell>
        <mxCell id="course-api" value="" style="endArrow=classic;startArrow=classic;html=1;" edge="1" parent="cloud" source="course" target="apigateway">
          <mxGeometry width="50" height="50" relative="1" as="geometry"/>
        </mxCell>
        <mxCell id="job-api" value="" style="endArrow=classic;startArrow=classic;html=1;" edge="1" parent="cloud" source="job" target="apigateway">
          <mxGeometry width="50" height="50" relative="1" as="geometry"/>
        </mxCell>
        <mxCell id="media-api" value="" style="endArrow=classic;startArrow=classic;html=1;" edge="1" parent="cloud" source="media" target="apigateway">
          <mxGeometry width="50" height="50" relative="1" as="geometry"/>
        </mxCell>
        <mxCell id="personality-api" value="" style="endArrow=classic;startArrow=classic;html=1;" edge="1" parent="cloud" source="personality" target="apigateway">
          <mxGeometry width="50" height="50" relative="1" as="geometry"/>
        </mxCell>
        <mxCell id="user-api" value="" style="endArrow=classic;startArrow=classic;html=1;" edge="1" parent="cloud" source="user" target="apigateway">
          <mxGeometry width="50" height="50" relative="1" as="geometry"/>
        </mxCell>
        
        <!-- Services to DynamoDB -->
        <mxCell id="auth-db" value="" style="endArrow=classic;html=1;" edge="1" parent="cloud" source="auth" target="dynamodb">
          <mxGeometry width="50" height="50" relative="1" as="geometry"/>
        </mxCell>
        <mxCell id="course-db" value="" style="endArrow=classic;html=1;" edge="1" parent="cloud" source="course" target="dynamodb">
          <mxGeometry width="50" height="50" relative="1" as="geometry"/>
        </mxCell>
        <mxCell id="job-db" value="" style="endArrow=classic;html=1;" edge="1" parent="cloud" source="job" target="dynamodb">
          <mxGeometry width="50" height="50" relative="1" as="geometry"/>
        </mxCell>
        <mxCell id="personality-db" value="" style="endArrow=classic;html=1;" edge="1" parent="cloud" source="personality" target="dynamodb">
          <mxGeometry width="50" height="50" relative="1" as="geometry"/>
        </mxCell>
        <mxCell id="user-db" value="" style="endArrow=classic;html=1;" edge="1" parent="cloud" source="user" target="dynamodb">
          <mxGeometry width="50" height="50" relative="1" as="geometry"/>
        </mxCell>
        
        <!-- Media Service to S3 -->
        <mxCell id="media-s3" value="" style="endArrow=classic;startArrow=classic;html=1;" edge="1" parent="cloud" source="media" target="s3">
          <mxGeometry width="50" height="50" relative="1" as="geometry"/>
        </mxCell>
        
        <!-- Auth Service to Cognito -->
        <mxCell id="auth-cognito" value="" style="endArrow=classic;startArrow=classic;html=1;" edge="1" parent="cloud" source="auth" target="cognito">
          <mxGeometry width="50" height="50" relative="1" as="geometry"/>
        </mxCell>
      </root>
    </mxGraphModel>
  </diagram>
</mxfile>